HIERARCHY
ROOT Hips
{
 OFFSET 0.000000 0.000000 0.000000
 CHANNELS 6 Xposition Yposition Zposition Yrotation Xrotation Zrotation
 JOINT Chest
 {
  OFFSET 0.000000 9.585900 0.002600
  CHANNELS 3 Yrotation Xrotation Zrotation
  JOINT Chest2
  {
   OFFSET 0.000000 9.601200 -0.005300
   CHANNELS 3 Yrotation Xrotation Zrotation
   JOINT Chest3
   {
    OFFSET 0.000000 9.561800 0.000000
    CHANNELS 3 Yrotation Xrotation Zrotation
    JOINT Chest4
    {
     OFFSET 0.000000 9.552100 0.000000
     CHANNELS 3 Yrotation Xrotation Zrotation
     JOINT Neck
     {
      OFFSET 0.000000 14.453000 0.000000
      CHANNELS 3 Yrotation Xrotation Zrotation
      JOINT Head
      {
       OFFSET 0.000000 8.936500 -0.011300
       CHANNELS 3 Yrotation Xrotation Zrotation
       End Site
       {
        OFFSET 0.000000 17.073600 -0.006000
       }
      }
     }
     JOINT RightCollar
     {
      OFFSET -2.921100 9.558500 0.000000
      CHANNELS 3 Yrotation Xrotation Zrotation
      JOINT RightShoulder
      {
       OFFSET -13.519700 0.000000 0.000000
       CHANNELS 3 Yrotation Xrotation Zrotation
       JOINT RightElbow
       {
        OFFSET 0.000000 -29.696600 0.000000
        CHANNELS 3 Yrotation Xrotation Zrotation
        JOINT RightWrist
        {
         OFFSET 0.000000 -24.004700 0.000000
         CHANNELS 3 Yrotation Xrotation Zrotation
         End Site
         {
          OFFSET 0.000000 -17.728500 0.000000
         }
        }
       }
      }
     }
     JOINT LeftCollar
     {
      OFFSET 2.921100 9.558500 0.000000
      CHANNELS 3 Yrotation Xrotation Zrotation
      JOINT LeftShoulder
      {
       OFFSET 13.519700 0.000000 0.000000
       CHANNELS 3 Yrotation Xrotation Zrotation
       JOINT LeftElbow
       {
        OFFSET 0.000000 -29.696600 0.000000
        CHANNELS 3 Yrotation Xrotation Zrotation
        JOINT LeftWrist
        {
         OFFSET 0.000000 -24.004700 0.000000
         CHANNELS 3 Yrotation Xrotation Zrotation
         End Site
         {
          OFFSET 0.000000 -17.728500 0.000000
         }
        }
       }
      }
     }
    }
   }
  }
 }
 JOINT RightHip
 {
  OFFSET -7.771700 -0.012900 -0.001300
  CHANNELS 3 Yrotation Xrotation Zrotation
  JOINT RightKnee
  {
   OFFSET 0.000000 -40.869800 0.001200
   CHANNELS 3 Yrotation Xrotation Zrotation
   JOINT RightAnkle
   {
    OFFSET 0.000000 -39.717900 0.002100
    CHANNELS 3 Yrotation Xrotation Zrotation
    JOINT RightToe
    {
     OFFSET 0.000000 -4.965400 11.033500
     CHANNELS 3 Yrotation Xrotation Zrotation
     End Site
     {
      OFFSET 0.000000 -1.423100 5.872300
     }
    }
   }
  }
 }
 JOINT LeftHip
 {
  OFFSET 7.771700 -0.012900 -0.001300
  CHANNELS 3 Yrotation Xrotation Zrotation
  JOINT LeftKnee
  {
   OFFSET 0.000000 -40.869800 0.001200
   CHANNELS 3 Yrotation Xrotation Zrotation
   JOINT LeftAnkle
   {
    OFFSET 0.000000 -39.717900 0.002100
    CHANNELS 3 Yrotation Xrotation Zrotation
    JOINT LeftToe
    {
     OFFSET 0.000000 -4.965400 11.033500
     CHANNELS 3 Yrotation Xrotation Zrotation
     End Site
     {
      OFFSET 0.000000 -1.423100 5.872300
     }
    }
   }
  }
 }
}
MOTION
Frames: 15
Frame Time: 0.008333
0.000000 85.388000 0.000000 0.000000 -5.767877 0.000000 0.000000 11.653817 0.000000 0.000000 -5.885947 0.000000 0.000000 -0.000000 0.000000 0.000000 -0.000000 0.000000 0.000000 12.528835 0.000000 0.000000 0.711642 0.000000 0.000000 -0.000000 0.000000 0.000000 0.000000 -90.000000 0.000000 -2.309062 0.000000 0.000000 2.309062 0.000000 0.000000 -0.000000 0.000000 0.000000 -0.000000 90.000000 0.000000 -2.309062 0.000000 0.000000 2.309062 0.000000 0.000000 8.520406 0.000000 0.000000 1.905762 0.000000 -0.000000 -4.658285 0.000000 0.000000 -0.000000 0.000000 0.000000 8.520406 0.000000 0.000000 1.905762 0.000000 -0.000000 -4.658285 0.000000 0.000000 -0.000000 0.000000
-18.093889 52.872808 9.393560 -177.640518 -17.613470 -2.187351 0.203112 16.073855 0.805470 0.006277 1.573743 0.095247 0.014058 2.640310 0.154156 0.173828 14.254169 0.784272 -0.064765 17.711118 -1.621203 0.248279 -7.141377 -1.522142 -0.319045 -1.217250 2.832774 -0.824864 -8.627706 -5.394817 -69.999715 -73.869205 102.414172 -5.856193 -2.224436 -3.847558 -5.918869 -1.963233 0.589480 2.077783 -7.585584 9.424750 64.772895 -59.696377 -104.735662 3.250991 -7.937745 7.954902 2.438670 -60.812285 10.434318 -176.005276 85.962775 -177.134185 -12.862922 -22.782570 12.967841 0.014643 -0.022543 -0.074392 3.019870 -59.811264 -3.335761 120.515665 77.466158 118.756911 -5.928572 -18.837174 -1.900422 -0.007543 0.066678 -0.002374
-18.094434 52.874116 9.391976 -177.641726 -17.600745 -2.194023 0.215666 16.076981 0.792551 0.001473 1.566348 0.105482 0.029076 2.663466 0.119688 0.183613 14.245715 0.795419 -0.075946 17.674463 -1.519239 0.216445 -7.177416 -1.423200 -0.332768 -1.273007 2.851152 -0.734561 -8.683461 -5.673702 -69.925458 -73.817388 102.476202 -5.836905 -2.159883 -3.772240 -5.943799 -1.966662 0.610465 2.081305 -7.612156 9.439840 64.938412 -59.720593 -104.893944 3.266649 -7.902430 7.982037 2.435220 -60.819819 10.423174 -176.189815 85.964619 -177.336143 -12.728650 -22.796718 12.957846 0.019481 -0.027573 -0.064838 3.021177 -59.820746 -3.332727 120.505718 77.468725 118.750501 -5.925714 -18.839554 -1.901269 -0.011939 0.067093 -0.001380
-18.095686 52.875364 9.390044 -177.638407 -17.584643 -2.197680 0.222646 16.075727 0.775589 0.004239 1.568816 0.104688 0.032552 2.665096 0.110562 0.196078 14.248485 0.791995 -0.087703 17.641570 -1.421226 0.187779 -7.209281 -1.335334 -0.349431 -1.327675 2.868394 -0.650608 -8.743215 -5.948516 -69.800313 -73.765143 102.487262 -5.810595 -2.099179 -3.698878 -5.975811 -1.974395 0.633935 2.100321 -7.651682 9.417636 64.889185 -59.751295 -104.843644 3.258531 -7.924931 7.997539 2.459981 -60.834922 10.411186 -175.938625 85.968743 -177.059316 -12.823637 -22.790020 12.977511 0.012941 -0.019630 -0.048095 3.022230 -59.833781 -3.333059 120.496387 77.471659 118.742527 -5.930170 -18.841363 -1.900286 -0.012595 0.068220 0.000188
-18.097379 52.876760 9.386621 -177.634283 -17.572720 -2.197712 0.225194 16.074213 0.760175 0.014268 1.582181 0.079456 0.026322 2.652555 0.127621 0.208306 14.250109 0.778918 -0.096580 17.615257 -1.332787 0.166931 -7.232495 -1.253846 -0.370049 -1.441785 2.824524 -0.575832 -8.737819 -6.154384 -69.626123 -73.710575 102.441786 -5.780927 -2.044461 -3.630131 -6.003735 -1.980880 0.656393 2.115098 -7.662029 9.422036 64.888299 -59.765768 -104.841882 3.256667 -7.940325 8.018601 2.478377 -60.846350 10.410713 -175.664873 85.970558 -176.764293 -12.970772 -22.774115 13.004561 0.006414 -0.015717 -0.030044 3.023515 -59.844015 -3.336858 120.494377 77.473092 118.740706 -5.937291 -18.838182 -1.900209 -0.008498 0.064142 0.001218
-18.098489 52.877976 9.382389 -177.629225 -17.561067 -2.198838 0.222285 16.066044 0.755302 0.014397 1.581954 0.079085 0.028525 2.658238 0.110249 0.215665 14.253605 0.729959 -0.088123 17.590673 -1.214675 0.160573 -7.245012 -1.209713 -0.380595 -1.519803 2.841699 -0.495791 -8.771414 -6.377373 -69.405134 -73.654062 102.333140 -5.752199 -1.999822 -3.566779 -6.027732 -1.989425 0.701524 2.128772 -7.662915 9.443392 64.919843 -59.772137 -104.858210 3.263610 -7.938573 8.037024 2.496227 -60.856868 10.400521 -175.634017 85.970320 -176.727301 -13.035567 -22.761622 13.018322 0.005441 -0.021269 -0.015898 3.020355 -59.854416 -3.335932 120.495110 77.469724 118.736967 -5.942542 -18.837687 -1.900483 -0.009968 0.060667 0.003245
-18.098205 52.878759 9.377962 -177.628757 -17.546585 -2.203127 0.227088 16.063267 0.741610 0.015003 1.580937 0.077874 0.024170 2.654206 0.109856 0.218145 14.249399 0.725608 -0.083138 17.576368 -1.154905 0.165631 -7.241148 -1.218057 -0.378215 -1.570753 2.824855 -0.412523 -8.822823 -6.600049 -69.143826 -73.598532 102.166936 -5.729807 -1.972336 -3.508165 -6.028571 -1.990727 0.714386 2.130938 -7.662909 9.453332 64.950719 -59.764891 -104.871086 3.265317 -7.931298 8.047732 2.506851 -60.871486 10.406794 -175.499762 85.970971 -176.583518 -13.128659 -22.740861 13.032169 0.003660 -0.027014 -0.000867 3.004087 -59.864979 -3.314556 120.515095 77.470111 118.748367 -5.945667 -18.846014 -1.899393 -0.011141 0.062556 0.004687
-18.095989 52.879663 9.371544 -177.630834 -17.541219 -2.214266 0.233913 16.066651 0.736353 0.008555 1.588502 0.062426 0.026366 2.644362 0.126335 0.225039 14.243329 0.734099 -0.091449 17.560857 -1.120891 0.140041 -7.283559 -1.108700 -0.375446 -1.604385 2.802113 -0.326672 -8.886523 -6.818447 -68.855234 -73.542646 101.958333 -5.716322 -1.968933 -3.456408 -6.028280 -1.990848 0.716681 2.124996 -7.666292 9.452520 64.958822 -59.746752 -104.833156 3.252214 -7.919258 8.019832 2.501350 -60.874180 10.418334 -175.561927 85.970913 -176.655292 -13.097974 -22.729401 13.024765 0.007046 -0.040360 0.009103 2.974331 -59.870478 -3.275264 120.590088 77.461780 118.815698 -5.946818 -18.861357 -1.900928 -0.014980 0.060274 0.005929
-18.093283 52.879693 9.366225 -177.640099 -17.527074 -2.221273 0.235298 16.073512 0.722034 0.015010 1.577477 0.074159 0.026341 2.642709 0.124464 0.222909 14.234858 0.717413 -0.102254 17.535685 -1.063480 0.144160 -7.296100 -1.077772 -0.366670 -1.614602 2.818240 -0.230237 -8.966457 -7.042410 -68.554752 -73.481537 101.720708 -5.709164 -1.989369 -3.414432 -6.021070 -1.987509 0.737076 2.118318 -7.665029 9.452381 64.940614 -59.739380 -104.791538 3.257967 -7.938939 8.036660 2.499173 -60.886277 10.417667 -175.848261 85.967926 -176.965274 -12.976181 -22.724672 12.996296 0.012848 -0.056428 0.017876 2.955710 -59.885382 -3.242755 120.637578 77.459539 118.859318 -5.946646 -18.866979 -1.906122 -0.008400 0.058077 0.004866
-18.092395 52.879242 9.360801 -177.640838 -17.512750 -2.215447 0.233006 16.065208 0.712397 0.014624 1.583338 0.070222 0.026555 2.638296 0.124499 0.216231 14.233529 0.705492 -0.098451 17.518970 -1.039364 0.146298 -7.300129 -1.066325 -0.356576 -1.652354 2.797359 -0.133074 -9.012737 -7.221810 -68.270094 -73.417337 101.481677 -5.705769 -2.024847 -3.388649 -6.012529 -1.987523 0.742884 2.108379 -7.670567 9.461071 64.913071 -59.728971 -104.741937 3.263905 -7.955831 8.053652 2.515157 -60.902889 10.418723 -175.640838 85.963819 -176.747669 -13.082044 -22.700959 12.995571 0.008069 -0.056943 0.036978 2.962374 -59.899072 -3.249761 120.665674 77.456583 118.885737 -5.945781 -18.868897 -1.909468 -0.010341 0.054161 0.005976
-18.093323 52.877586 9.357843 -177.641012 -17.483743 -2.194044 0.225968 16.042558 0.686465 0.014393 1.583366 0.070414 0.027308 2.644739 0.121059 0.213423 14.227784 0.692755 -0.095606 17.503796 -1.017484 0.135614 -7.331845 -1.038271 -0.346967 -1.689574 2.782963 -0.037191 -9.045149 -7.390580 -68.021069 -73.355910 101.265211 -5.708581 -2.074275 -3.388539 -6.007786 -1.988265 0.754381 2.100088 -7.674029 9.476153 64.893619 -59.712580 -104.703547 3.278038 -7.972728 8.072102 2.559400 -60.944046 10.444134 -174.610658 85.961461 -175.652407 -13.576253 -22.638436 13.050316 -0.014557 -0.035980 0.065751 2.980281 -59.925273 -3.271168 120.691253 77.458042 118.898484 -5.952524 -18.872030 -1.909060 -0.008364 0.053983 0.008244
-18.092243 52.876417 9.352694 -177.640047 -17.469907 -2.181668 0.225659 16.058822 0.669648 0.009729 1.560005 0.072552 0.031343 2.655470 0.117558 0.210493 14.234996 0.669378 -0.087104 17.476344 -0.985893 0.125447 -7.361987 -1.020966 -0.320482 -1.749548 2.753490 0.036577 -9.061096 -7.520630 -67.809713 -73.300859 101.073411 -5.722006 -2.141001 -3.413716 -5.996602 -1.988550 0.758808 2.082751 -7.697775 9.513088 64.866665 -59.696180 -104.660856 3.291951 -7.979981 8.083901 2.603016 -60.964760 10.434330 -174.184382 85.953546 -175.203931 -13.702689 -22.610658 13.053105 -0.018939 -0.039344 0.072641 2.967730 -59.933180 -3.258095 120.718718 77.461307 118.905746 -5.962573 -18.881736 -1.906512 -0.000865 0.060735 0.006662
-18.088506 52.875074 9.347884 -177.637536 -17.456543 -2.182346 0.229144 16.059281 0.669626 0.015023 1.575908 0.070001 0.026380 2.640172 0.117547 0.209194 14.231211 0.664137 -0.092187 17.458606 -0.976604 0.116770 -7.383707 -1.015026 -0.303398 -1.769234 2.738653 0.122288 -9.093477 -7.671267 -67.634244 -73.254473 100.904603 -5.743550 -2.222955 -3.454981 -5.995437 -1.986758 0.756378 2.076867 -7.711671 9.539712 64.832340 -59.681026 -104.619782 3.299534 -7.986279 8.086880 2.614830 -60.974838 10.379847 -174.950952 85.945069 -176.022059 -13.261790 -22.639632 12.966433 0.000066 -0.070766 0.054639 2.953601 -59.944285 -3.243146 120.736066 77.462684 118.916190 -5.962326 -18.889361 -1.905745 -0.001805 0.065114 0.004622
-18.083085 52.873849 9.342814 -177.634670 -17.448792 -2.190958 0.236004 16.065461 0.677129 0.010993 1.568692 0.070927 0.031017 2.649063 0.113711 0.204429 14.218895 0.666781 -0.104603 17.447882 -0.993381 0.109615 -7.407773 -0.998885 -0.293010 -1.775659 2.730465 0.215911 -9.121410 -7.819945 -67.489053 -73.217442 100.756114 -5.766056 -2.314099 -3.504917 -5.989876 -1.979079 0.744859 2.069454 -7.724297 9.562259 64.793283 -59.675947 -104.578170 3.303865 -7.987537 8.097874 2.610158 -60.981334 10.375408 -175.356776 85.941500 -176.452335 -13.005741 -22.650039 12.903679 0.009057 -0.085725 0.046307 2.881071 -59.952227 -3.159272 120.814128 77.477312 118.964103 -5.973760 -18.896339 -1.900917 0.009193 0.068384 0.004666
-18.078923 52.872351 9.338852 -177.633854 -17.439667 -2.190030 0.245354 16.071159 0.676125 0.003461 1.561066 0.071625 0.036199 2.654741 0.111340 0.202812 14.225686 0.655884 -0.105578 17.429865 -0.992313 0.098945 -7.428099 -0.993109 -0.285015 -1.796517 2.736822 0.303994 -9.140815 -7.950678 -67.365823 -73.188286 100.623646 -5.786780 -2.406613 -3.564428 -5.984831 -1.984796 0.744991 2.058066 -7.738086 9.588352 64.755910 -59.676782 -104.540837 3.312629 -7.989718 8.108963 2.616784 -60.991752 10.370851 -175.459809 85.937544 -176.568075 -12.833263 -22.652886 12.853187 0.013542 -0.091184 0.042668 2.856825 -59.961928 -3.131270 120.853373 77.477957 118.993407 -5.978761 -18.903393 -1.907065 0.010813 0.070252 0.008114
